<svg width="24" height="24" viewBox="0 0 24 24" fill="none" xmlns="http://www.w3.org/2000/svg">
<path d="M12 8.8001C11.8 8.8001 11.6 8.8001 11.5 8.8001C9.20001 9.2001 7.80001 11.5001 8.60001 13.7001C9.00001 14.8001 9.90001 15.6001 11 15.9001C11.6 16.1001 12.3 16.1001 12.9 15.9001C14.1 15.6001 15 14.7001 15.4 13.6001C15.9 12.3001 15.6 10.8001 14.6 9.8001C13.9 9.1001 13 8.8001 12 8.8001ZM13.4 13.8001C13.1 14.1001 12.9 14.2001 12.5 14.3001C12.3 14.4001 11.8 14.4001 11.5 14.3001C10.8 14.1001 10.2 13.5001 10.1 12.8001C10 12.5001 10.1 12.1001 10.1 11.9001C10.2 11.6001 10.3 11.4001 10.6 11.1001C10.7 11.0001 10.9 10.8001 11 10.8001C11.2 10.7001 11.5 10.6001 11.7 10.6001C12 10.6001 12.5 10.6001 12.8 10.8001C13.1 11.0001 13.5 11.3001 13.7 11.6001C13.9 11.9001 13.9 12.1001 13.9 12.4001C13.9 12.9001 13.8 13.3001 13.4 13.8001Z" fill=""/>
<path d="M22.4 6.9001C22.3 6.2001 21.9 5.5001 21.3 5.1001C21.1 4.9001 20.8 4.8001 20.5 4.8001L20.3 4.7001H11.1L10.9 4.0001C10.8 3.6001 10.7 3.2001 10.6 3.1001C10.4 2.4001 9.70001 1.8001 9.00001 1.7001C8.90001 1.7001 8.80001 1.7001 8.70001 1.6001C8.50001 1.6001 4.00001 1.6001 3.80001 1.6001C2.70001 1.7001 1.80001 2.6001 1.70001 3.7001C1.70001 4.0001 1.70001 19.9001 1.70001 20.2001C1.80001 20.8001 2.00001 21.3001 2.50001 21.7001C2.90001 22.1001 3.40001 22.3001 3.90001 22.3001C4.20001 22.3001 20.1 22.3001 20.4 22.3001C20.7 22.3001 20.9 22.2001 21.2 22.1001C22 21.7001 22.5 21.0001 22.6 20.2001C22.4 20.0001 22.4 7.2001 22.4 6.9001ZM12 20.7001C9.80001 20.7001 8.00001 20.7001 8.00001 20.7001C8.00001 20.7001 8.10001 20.6001 8.20001 20.5001C9.00001 19.4001 10.1 18.7001 11.5 18.5001C12.1 18.4001 12.9 18.5001 13.6 18.7001C14.5 19.0001 15.4 19.6001 16 20.5001C16.1 20.6001 16.2 20.7001 16.2 20.7001C16 20.7001 14.2 20.7001 12 20.7001ZM20.7 13.6001V20.1001L20.6 20.2001C20.5 20.4001 20.4 20.5001 20.3 20.5001L20.2 20.6001H18L17.9 20.5001C17.7 20.1001 17.4 19.5001 17 19.1001C16.1 17.9001 14.7 17.1001 13.3 16.8001C12.3 16.6001 11.2 16.6001 10.2 16.9001C8.50001 17.4001 7.20001 18.5001 6.30001 20.1001C6.20001 20.2001 6.10001 20.4001 6.10001 20.5001L6.00001 20.6001H4.90001C3.80001 20.6001 3.80001 20.6001 3.70001 20.5001C3.50001 20.4001 3.40001 20.3001 3.40001 20.2001L3.30001 20.1001V12.0001C3.30001 6.5001 3.30001 3.8001 3.30001 3.8001C3.40001 3.6001 3.60001 3.4001 3.80001 3.3001C3.80001 3.3001 4.90001 3.3001 6.20001 3.3001H8.50001L8.60001 3.4001C8.80001 3.5001 9.00001 3.6001 9.00001 3.7001C9.00001 3.8001 9.20001 4.3001 9.30001 4.8001C9.50001 5.5001 9.60001 5.9001 9.60001 6.0001C9.70001 6.2001 9.80001 6.3001 10 6.4001L10.1 6.5001H20.1L20.2 6.6001C20.4 6.7001 20.5 6.9001 20.6 7.0001C20.7 7.1001 20.7 7.7001 20.7 13.6001Z" fill=""/>
</svg>
