<svg width="24" height="24" viewBox="0 0 24 24" fill="none" xmlns="http://www.w3.org/2000/svg">
<path fill-rule="evenodd" clip-rule="evenodd" d="M11.628 0.0136504C11.5884 0.0190024 11.4642 0.0353944 11.352 0.0500344C10.4495 0.167922 9.56451 0.60093 8.88483 1.25716C8.18837 1.92959 7.81577 2.61763 7.57445 3.67696L7.55969 3.74179L5.86184 3.75026C3.91882 3.75995 3.9841 3.75345 3.51601 3.98354C2.93129 4.27094 2.50229 4.78463 2.32289 5.41216L2.26801 5.60416V13.8842V22.1642L2.33422 22.3753C2.48573 22.8583 2.76761 23.2661 3.13904 23.5397C3.42053 23.7471 3.62417 23.8447 3.98401 23.9448C4.13302 23.9862 4.49204 23.9882 12.012 23.9882H19.884L20.1 23.9216C20.8811 23.6809 21.4246 23.1442 21.6658 22.3753L21.732 22.1642L21.7386 13.9802C21.7432 8.25136 21.7375 5.74579 21.7195 5.62828C21.6132 4.93403 21.1405 4.30471 20.484 3.98313C20.0151 3.75343 20.0807 3.75995 18.1382 3.75026L16.4403 3.74179L16.4256 3.67696C16.1845 2.6188 15.8109 1.92885 15.1152 1.25716C14.4521 0.616914 13.6503 0.215322 12.72 0.0573544C12.5225 0.0238024 11.7742 -0.00612563 11.628 0.0136504ZM11.616 1.52644C11.1763 1.60468 10.8143 1.72972 10.501 1.9115C10.2511 2.05653 10.1315 2.14797 9.91534 2.35936C9.37347 2.88935 9.08386 3.50999 9.02278 4.27216C9.00848 4.45036 8.98083 4.65266 8.96132 4.72173C8.89306 4.96319 8.66559 5.17811 8.42321 5.2301C8.34133 5.24764 7.65973 5.25616 6.33509 5.25616C4.45217 5.25616 4.36335 5.25813 4.24693 5.30236C4.06095 5.37302 3.92626 5.49731 3.83521 5.68228L3.75601 5.84315L3.74919 13.7757C3.74432 19.4266 3.74989 21.7524 3.76856 21.862C3.78296 21.9466 3.81094 22.0472 3.83074 22.0854C3.89775 22.215 4.04338 22.3514 4.18801 22.4199L4.33201 22.4881H12H19.668L19.812 22.4199C19.9573 22.3511 20.1023 22.215 20.1701 22.0839C20.1903 22.0448 20.2182 21.9388 20.232 21.8485C20.2493 21.7357 20.2551 19.1978 20.2506 13.7637L20.244 5.84315L20.1648 5.68228C20.0738 5.49731 19.9391 5.37302 19.7531 5.30236C19.6367 5.25813 19.5478 5.25616 17.6649 5.25616C16.3403 5.25616 15.6587 5.24764 15.5768 5.2301C15.3344 5.17811 15.1069 4.96319 15.0387 4.72173C15.0192 4.65266 14.9915 4.45036 14.9772 4.27216C14.9162 3.50999 14.6265 2.88935 14.0847 2.35936C13.7812 2.0626 13.473 1.8629 13.092 1.71626C12.7129 1.57036 12.5132 1.53268 12.072 1.52375C11.8542 1.51936 11.649 1.52056 11.616 1.52644ZM11.7863 3.02731C11.3877 3.09345 11.0154 3.44387 10.9088 3.853C10.7234 4.56458 11.2613 5.25616 12 5.25616C12.3254 5.25616 12.6001 5.13734 12.8213 4.90082C13.0249 4.68321 13.1269 4.42569 13.1276 4.1272C13.1291 3.59769 12.7153 3.11066 12.192 3.02582C12.0146 2.99704 11.9675 2.99723 11.7863 3.02731ZM7.24525 9.80114C7.06779 9.86481 6.89492 10.029 6.81243 10.2122C6.73736 10.3788 6.73755 10.6438 6.81284 10.8145C6.87581 10.9573 7.02305 11.1088 7.17601 11.1881L7.28401 11.2442H12H16.716L16.824 11.1881C17.0961 11.047 17.241 10.8124 17.2414 10.5122C17.2418 10.222 17.1111 10.0002 16.848 9.84419L16.74 9.78016L12.036 9.7751C8.23244 9.77099 7.3154 9.77599 7.24525 9.80114ZM7.29601 13.5345C7.08608 13.599 6.89941 13.7639 6.80849 13.9652C6.73333 14.1316 6.73815 14.3944 6.81956 14.5682C6.93411 14.8126 7.12448 14.9551 7.3951 14.999C7.60669 15.0333 16.3933 15.0333 16.6049 14.999C16.8755 14.9551 17.0659 14.8126 17.1805 14.5682C17.2619 14.3944 17.2667 14.1316 17.1915 13.9652C17.1233 13.8141 16.9836 13.6654 16.8375 13.5883L16.716 13.5242L12.036 13.5201C9.46201 13.5179 7.32901 13.5243 7.29601 13.5345ZM7.2577 17.2999C6.96145 17.4026 6.74309 17.7052 6.74429 18.0114C6.74559 18.3437 7.01307 18.6718 7.33918 18.7411C7.52007 18.7796 16.4799 18.7796 16.6608 18.7411C17.1161 18.6443 17.3751 18.1271 17.1843 17.6955C17.126 17.5634 16.946 17.3855 16.8047 17.3202L16.692 17.2682L12.036 17.2628C7.63887 17.2578 7.37321 17.2598 7.2577 17.2999Z" fill=""/>
</svg>
