<svg width="24" height="24" viewBox="0 0 24 24" fill="none" xmlns="http://www.w3.org/2000/svg">
<path fill-rule="evenodd" clip-rule="evenodd" d="M0 21.75C0 22.991 1.009 24 2.25 24H3.75C4.991 24 6 22.991 6 21.75V2.25C6 1.009 4.991 0 3.75 0H2.25C1.009 0 0 1.009 0 2.25V21.75ZM1.5 2.25C1.5 1.836 1.836 1.5 2.25 1.5H3.75C4.164 1.5 4.5 1.836 4.5 2.25V21.75C4.5 22.164 4.164 22.5 3.75 22.5H2.25C1.836 22.5 1.5 22.164 1.5 21.75V2.25Z" fill=""/>
<path fill-rule="evenodd" clip-rule="evenodd" d="M9.001 21.75C9.001 22.991 10.01 24 11.251 24H12.751C13.992 24 15.001 22.991 15.001 21.75V2.25C15.001 1.009 13.992 0 12.751 0H11.251C10.01 0 9.001 1.009 9.001 2.25V21.75ZM10.501 2.25C10.501 1.836 10.837 1.5 11.251 1.5H12.751C13.165 1.5 13.501 1.836 13.501 2.25V21.75C13.501 22.164 13.165 22.5 12.751 22.5H11.251C10.837 22.5 10.501 22.164 10.501 21.75V2.25Z" fill=""/>
<path fill-rule="evenodd" clip-rule="evenodd" d="M20.25 24C19.009 24 18 22.991 18 21.75V2.25C18 1.009 19.009 0 20.25 0H21.75C22.991 0 24 1.009 24 2.25V21.75C24 22.991 22.991 24 21.75 24H20.25ZM20.25 1.5C19.836 1.5 19.5 1.836 19.5 2.25V21.75C19.5 22.164 19.836 22.5 20.25 22.5H21.75C22.164 22.5 22.5 22.164 22.5 21.75V2.25C22.5 1.836 22.164 1.5 21.75 1.5H20.25Z" fill=""/>
</svg>
