<svg width="25" height="24" viewBox="0 0 25 24" fill="none" xmlns="http://www.w3.org/2000/svg">
<path fill-rule="evenodd" clip-rule="evenodd" d="M2.5 3.74799C2.086 3.74799 1.75 3.41199 1.75 2.99799C1.75 2.58399 2.086 2.24799 2.5 2.24799H23.5C23.914 2.24799 24.25 2.58399 24.25 2.99799C24.25 3.41199 23.914 3.74799 23.5 3.74799H2.5ZM5.5 8.24799C5.086 8.24799 4.75 7.91199 4.75 7.49799C4.75 7.08399 5.086 6.74799 5.5 6.74799H23.5C23.914 6.74799 24.25 7.08399 24.25 7.49799C24.25 7.91199 23.914 8.24799 23.5 8.24799H5.5ZM1 12.748C0.586 12.748 0.25 12.412 0.25 11.998C0.25 11.584 0.586 11.248 1 11.248H23.5C23.914 11.248 24.25 11.584 24.25 11.998C24.25 12.412 23.914 12.748 23.5 12.748H1ZM5.5 17.248C5.086 17.248 4.75 16.912 4.75 16.498C4.75 16.084 5.086 15.748 5.5 15.748H23.5C23.914 15.748 24.25 16.084 24.25 16.498C24.25 16.912 23.914 17.248 23.5 17.248H5.5ZM2.5 21.748C2.086 21.748 1.75 21.412 1.75 20.998C1.75 20.584 2.086 20.248 2.5 20.248H23.5C23.914 20.248 24.25 20.584 24.25 20.998C24.25 21.412 23.914 21.748 23.5 21.748H2.5Z" fill=""/>
</svg>
