<svg width="24" height="24" viewBox="0 0 24 24" fill="none" xmlns="http://www.w3.org/2000/svg">
<g clip-path="url(#clip0_4937_5026)">
<path fill-rule="evenodd" clip-rule="evenodd" d="M11.436 0.12001C8.95602 0.235378 6.58674 1.12055 4.63199 2.66197C3.94746 3.20178 3.20111 3.94813 2.66204 4.63189C0.891973 6.87711 -0.00389936 9.65348 0.121213 12.5062C0.214213 14.6274 0.812869 16.5488 1.94132 18.3479C2.74396 19.6276 3.84824 20.7942 5.11199 21.6978C7.60482 23.48 10.7257 24.2177 13.824 23.7571C16.361 23.3799 18.8315 22.0873 20.6072 20.2078C21.1299 19.6545 21.7139 18.9149 21.7791 18.7237C21.8268 18.5836 21.8262 18.3505 21.7778 18.2083C21.7256 18.0553 21.5558 17.8731 21.3889 17.7911C21.2746 17.735 21.2222 17.7241 21.072 17.7252C20.7537 17.7276 20.6262 17.8132 20.3023 18.2421C18.6538 20.4251 16.2291 21.8732 13.5574 22.27C11.4702 22.5801 9.38574 22.267 7.49329 21.3591C4.70761 20.0227 2.63944 17.4699 1.91118 14.4689C1.74068 13.7662 1.67022 13.2803 1.62728 12.5106C1.53277 10.8167 1.88653 9.06543 2.64078 7.49319C3.65072 5.38801 5.38811 3.65063 7.49329 2.64068C9.06632 1.88605 10.8352 1.52953 12.5203 1.62755C12.7951 1.64353 13.1772 1.67677 13.3694 1.70139C13.8632 1.76466 14.0285 1.72851 14.2538 1.50795C14.466 1.30014 14.5249 0.932602 14.389 0.66409C14.3116 0.511042 14.1903 0.38857 14.0403 0.312082C13.7814 0.179986 12.3756 0.0763064 11.436 0.12001ZM18.3873 2.23374C18.0515 2.29974 17.7837 2.62307 17.7841 2.96216C17.7844 3.2342 17.8871 3.41982 18.1503 3.62389C19.1005 4.36079 19.6962 4.95411 20.3331 5.79805C20.6242 6.18363 20.7615 6.27224 21.072 6.27455C21.2222 6.27567 21.2746 6.26478 21.3889 6.20869C21.5558 6.12671 21.7256 5.94452 21.7778 5.79147C21.8259 5.65007 21.8269 5.41635 21.7798 5.27811C21.7167 5.09312 21.1644 4.38572 20.6756 3.86389C20.132 3.28367 19.1943 2.47326 18.8723 2.30543C18.793 2.26407 18.5541 2.20206 18.5067 2.21053C18.4986 2.21197 18.4449 2.22241 18.3873 2.23374ZM11.796 6.992C11.633 7.04603 11.5544 7.09727 11.4408 7.2236C11.2432 7.44342 11.2542 7.27818 11.2615 9.9015L11.268 12.2279L11.3213 12.3276C11.3777 12.433 15.6805 17.4698 15.842 17.6193C16.1402 17.8956 16.6011 17.8867 16.8885 17.5993C17.0367 17.4512 17.0956 17.3029 17.0966 17.0759C17.0972 16.9226 17.0861 16.8606 17.0415 16.7687C17.0071 16.6978 16.169 15.7016 14.8648 14.1812L12.744 11.709V9.63872C12.744 7.80066 12.7397 7.55576 12.7054 7.45532C12.6521 7.29863 12.4649 7.09995 12.3065 7.03182C12.1539 6.96618 11.9272 6.94851 11.796 6.992ZM22.812 9.56C22.583 9.63591 22.432 9.76635 22.328 9.9783C22.2545 10.128 22.2499 10.296 22.3077 10.7159C22.3277 10.8611 22.357 11.2094 22.3728 11.4899C22.4044 12.0487 22.3778 12.7778 22.3073 13.2839C22.2489 13.7041 22.2534 13.8694 22.3274 14.0204C22.4671 14.3049 22.7093 14.4595 23.016 14.4597C23.1644 14.4599 23.2198 14.4482 23.3319 14.3932C23.481 14.3199 23.6108 14.1913 23.6878 14.0402C23.7434 13.9314 23.8116 13.492 23.8575 12.9479C23.9392 11.9787 23.8417 10.2611 23.6878 9.95953C23.5615 9.71187 23.3252 9.55347 23.0581 9.5373C22.9723 9.53209 22.8669 9.54181 22.812 9.56Z" fill=""/>
</g>
<defs>
<clipPath id="clip0_4937_5026">
<rect width="24" height="24" fill=""/>
</clipPath>
</defs>
</svg>
