<svg width="24" height="24" viewBox="0 0 24 24" fill="none" xmlns="http://www.w3.org/2000/svg">
<path fill-rule="evenodd" clip-rule="evenodd" d="M0 21.75C0 22.991 1.009 24 2.25 24H15.879C16.479 24 17.044 23.766 17.469 23.341L23.342 17.469C23.766 17.044 24 16.479 24 15.879V2.25C24 1.009 22.991 0 21.75 0H2.25C1.009 0 0 1.009 0 2.25V21.75ZM15 17.25V22.5H7.5V7.5H22.5V15H17.25C16.009 15 15 16.009 15 17.25ZM1.5 21.75C1.5 22.164 1.836 22.5 2.25 22.5H6V18H4.5C4.086 18 3.75 17.664 3.75 17.25C3.75 16.836 4.086 16.5 4.5 16.5H6V12H4.5C4.086 12 3.75 11.664 3.75 11.25C3.75 10.836 4.086 10.5 4.5 10.5H6V7.5H1.5V21.75ZM16.5 17.25C16.5 16.836 16.836 16.5 17.25 16.5H22.189L16.5 22.189V17.25ZM22.5 6V2.25C22.5 1.836 22.164 1.5 21.75 1.5H7.5V6H10.5V4.5C10.5 4.086 10.836 3.75 11.25 3.75C11.664 3.75 12 4.086 12 4.5V6H16.5V4.5C16.5 4.086 16.836 3.75 17.25 3.75C17.664 3.75 18 4.086 18 4.5V6H22.5ZM6 1.5V6H1.5V2.25C1.5 1.836 1.836 1.5 2.25 1.5H6Z" fill=""/>
</svg>
